<?xml version="1.0" standalone="no"?>
<!DOCTYPE svg PUBLIC "-//W3C//DTD SVG 20010904//EN"
 "http://www.w3.org/TR/2001/REC-SVG-20010904/DTD/svg10.dtd">
<svg version="1.0" xmlns="http://www.w3.org/2000/svg"
 width="1280.000000pt" height="1280.000000pt" viewBox="0 0 1280.000000 1280.000000"
 preserveAspectRatio="xMidYMid meet">
<metadata>
Created by potrace 1.14, written by Peter Selinger 2001-2017
</metadata>
<g transform="translate(0.000000,1280.000000) scale(0.100000,-0.100000)"
fill="#000000" stroke="none">
<path d="M2495 8179 c-22 -5 -105 -13 -185 -18 -356 -21 -688 -132 -862 -288
-89 -78 -117 -114 -160 -198 -27 -52 -31 -70 -30 -134 3 -127 34 -160 219
-233 36 -14 64 -35 93 -69 22 -27 60 -60 83 -73 38 -22 64 -31 151 -51 17 -3
59 -35 98 -73 41 -40 94 -79 131 -97 53 -26 69 -41 113 -105 48 -70 56 -77
124 -105 82 -35 120 -67 120 -101 0 -41 -16 -34 -141 63 -101 77 -133 56 -37
-25 149 -124 352 -251 425 -267 17 -3 50 -19 71 -35 58 -42 138 -80 167 -80
30 0 32 11 5 35 -10 9 -24 33 -30 51 -8 22 -23 40 -43 51 -75 38 -155 123
-116 123 28 0 74 48 100 105 27 60 29 62 86 78 32 9 76 18 98 21 64 9 83 51
44 99 -33 43 -86 53 -165 32 -58 -16 -68 -22 -91 -59 -15 -22 -49 -69 -77
-103 -51 -62 -51 -63 -104 -63 -37 0 -54 -4 -58 -15 -4 -8 -11 -15 -16 -15
-15 0 -119 113 -110 121 4 4 24 12 44 19 21 6 48 24 60 39 33 40 146 117 203
138 48 18 50 20 53 60 4 55 -29 83 -98 83 -72 0 -108 -17 -130 -61 -11 -21
-32 -46 -46 -56 -14 -10 -42 -32 -62 -49 -21 -17 -57 -41 -82 -54 -25 -12 -53
-30 -64 -39 -17 -15 -19 -14 -40 13 -11 16 -38 46 -59 67 -41 42 -41 59 0 59
17 0 39 14 67 44 59 63 175 142 232 158 47 13 49 15 52 54 4 52 -28 84 -93 91
-52 6 -75 -8 -105 -68 -15 -28 -32 -41 -83 -63 -40 -17 -79 -43 -101 -67 -20
-21 -44 -39 -53 -39 -9 0 -36 -10 -61 -21 l-44 -22 -40 39 c-63 62 -65 70 -19
94 22 11 55 38 72 60 51 63 127 114 250 170 131 59 144 69 135 103 -10 39 -51
43 -143 12 -149 -50 -263 -112 -324 -177 -51 -53 -61 -59 -109 -65 -39 -4 -55
-12 -67 -29 -21 -33 -38 -30 -91 17 -26 23 -69 51 -97 64 -29 12 -71 44 -98
73 l-48 52 26 50 c14 27 25 65 25 84 0 110 37 176 143 257 51 39 87 55 207 93
79 26 171 49 205 52 33 3 74 10 92 16 18 5 78 14 135 19 57 5 153 15 213 21
199 20 605 8 720 -21 22 -6 59 -11 83 -11 24 0 62 -4 85 -9 119 -26 187 -34
234 -25 70 14 164 0 210 -30 26 -17 59 -27 103 -31 114 -12 412 -74 428 -90 3
-2 -1 -18 -8 -34 -6 -16 -9 -35 -5 -40 10 -17 65 -43 130 -62 76 -21 424 -154
453 -172 6 -5 12 -15 12 -24 0 -23 -74 -11 -158 26 -68 30 -338 109 -444 131
-38 7 -79 26 -120 54 -106 72 -146 89 -197 83 -30 -4 -55 -1 -71 8 -14 8 -33
14 -42 15 -34 0 -17 -27 45 -73 34 -25 78 -61 98 -80 23 -21 51 -36 75 -40 32
-5 43 -13 59 -44 12 -22 30 -40 45 -45 14 -3 72 -18 130 -33 160 -40 390 -117
425 -142 16 -12 40 -30 52 -39 21 -15 25 -15 55 4 34 21 98 29 211 24 47 -2
57 -5 56 -19 0 -18 -74 -59 -149 -82 -19 -6 -43 -20 -55 -30 -33 -30 -125 -59
-403 -127 -145 -35 -290 -75 -322 -89 -42 -18 -78 -25 -122 -25 -77 0 -217
-36 -356 -91 -116 -47 -152 -71 -152 -103 0 -28 35 -66 61 -66 11 0 47 11 80
25 99 42 292 69 328 46 13 -8 13 -15 1 -50 -12 -38 -16 -41 -67 -52 -40 -9
-60 -20 -76 -42 -56 -74 -87 -95 -178 -116 -48 -12 -97 -21 -109 -21 -38 0
-144 -31 -162 -47 -10 -9 -18 -23 -18 -31 0 -12 9 -13 48 -7 26 4 81 11 122
15 41 5 94 12 117 16 23 3 57 4 75 0 36 -6 108 -59 96 -71 -3 -3 -64 -23 -135
-43 -163 -47 -268 -107 -374 -213 -81 -81 -109 -128 -134 -225 -15 -58 -14
-66 5 -148 17 -72 30 -101 79 -174 64 -93 160 -186 256 -247 33 -21 84 -60
114 -87 30 -27 76 -60 103 -74 27 -14 70 -41 96 -61 86 -65 252 -129 236 -90
-2 6 -36 32 -75 56 -38 25 -68 50 -66 55 2 6 27 12 55 14 39 2 60 -2 80 -16
41 -28 58 -32 79 -17 17 13 17 14 -8 23 -14 6 -38 12 -55 13 -34 4 -173 85
-181 106 -3 8 7 25 25 41 69 61 192 230 192 266 0 42 -108 -12 -170 -85 -25
-30 -58 -65 -73 -78 -16 -13 -35 -41 -44 -62 -8 -22 -20 -39 -26 -39 -17 0
-87 80 -87 99 0 18 155 165 210 199 14 9 40 29 58 46 26 25 32 37 32 73 0 43
0 43 -36 43 -30 0 -45 -9 -92 -54 -32 -30 -93 -79 -137 -109 -44 -29 -91 -70
-104 -90 -13 -20 -32 -37 -41 -37 -9 0 -31 15 -49 34 -27 28 -32 40 -29 72 3
35 9 43 58 76 55 37 186 105 331 171 42 19 79 39 83 45 3 6 31 18 61 27 44 12
58 22 71 48 30 58 106 147 126 147 10 0 32 -10 48 -21 16 -12 36 -19 45 -16
14 6 14 10 1 40 -7 19 -17 53 -21 75 -5 30 -17 51 -46 77 -50 45 -91 46 -201
4 -66 -26 -91 -42 -132 -86 -36 -38 -73 -64 -128 -90 -43 -20 -78 -42 -78 -50
0 -19 18 -17 110 13 116 36 138 24 73 -40 -51 -50 -124 -90 -209 -115 -42 -13
-80 -31 -94 -46 -39 -41 -187 -117 -222 -113 -50 5 -56 28 -29 106 13 37 27
93 31 124 15 105 71 161 228 227 37 16 114 49 170 73 57 24 115 54 129 66 22
20 24 27 18 71 -12 87 36 293 79 339 55 61 280 154 510 211 89 22 189 50 221
61 33 12 85 27 115 35 188 46 294 77 335 97 35 17 50 20 63 12 58 -37 -5 -93
-182 -164 -101 -40 -158 -76 -154 -98 6 -26 39 -18 177 47 69 33 137 62 150
66 29 9 121 92 121 111 0 7 -18 27 -40 44 -27 22 -40 40 -40 56 0 26 35 104
47 104 4 0 17 -10 29 -21 14 -13 60 -30 119 -45 73 -17 105 -30 131 -54 20
-17 49 -34 66 -37 35 -7 58 -50 58 -108 0 -52 -30 -43 -51 15 -13 37 -22 46
-44 48 -34 4 -80 -37 -96 -87 -22 -68 -51 -116 -101 -168 -57 -58 -57 -77 -1
-61 21 6 66 7 99 4 60 -6 64 -5 110 30 26 20 66 46 88 58 26 14 43 31 48 49
25 88 20 82 67 79 40 -3 45 -1 99 56 45 47 67 62 103 71 49 11 277 105 292
120 6 6 5 23 -2 44 -10 30 -9 39 9 70 20 33 20 43 12 137 -6 68 -14 105 -23
111 -8 5 -40 9 -72 9 -65 0 -79 -14 -53 -52 22 -30 20 -76 -4 -115 -28 -47
-38 -44 -83 25 -34 52 -62 57 -53 10 18 -102 19 -138 3 -138 -9 0 -19 10 -21
23 -25 123 -27 151 -15 197 12 46 11 49 -14 80 -36 43 -35 75 3 95 25 13 30
22 30 50 0 61 79 113 184 123 34 3 74 13 91 24 42 25 141 25 169 -1 20 -19 98
-42 184 -56 24 -4 46 -14 51 -24 15 -26 -9 -63 -49 -76 -37 -12 -52 -42 -28
-56 15 -10 99 -12 123 -3 9 4 21 18 26 32 l10 25 34 -33 c27 -26 39 -31 61
-26 35 9 84 59 84 87 0 82 -72 179 -150 199 -25 6 -61 23 -82 36 -20 14 -62
32 -95 40 -32 9 -79 29 -104 45 -42 27 -53 29 -140 29 -74 0 -104 -5 -139 -21
-66 -31 -136 -54 -236 -79 -125 -31 -172 -58 -231 -131 -88 -107 -94 -197 -18
-273 54 -53 64 -94 40 -168 -24 -73 -87 -188 -104 -188 -7 0 -41 21 -75 46
-58 44 -150 94 -226 124 -19 8 -53 27 -74 42 -21 15 -44 28 -50 28 -5 0 -85
38 -176 84 -91 46 -205 97 -255 114 -49 16 -142 50 -205 75 -209 81 -363 135
-485 167 -659 174 -607 165 -999 180 -137 5 -274 14 -305 20 -66 12 -419 11
-476 -1z"/>
<path d="M9975 8159 c-99 -4 -236 -12 -305 -18 -69 -5 -186 -14 -260 -20 -74
-5 -148 -14 -163 -20 -16 -6 -44 -11 -63 -11 -32 0 -379 -81 -431 -101 -12 -4
-75 -20 -140 -35 -65 -14 -160 -42 -212 -61 -52 -19 -144 -51 -205 -70 -61
-19 -132 -46 -157 -59 -26 -13 -114 -50 -196 -83 -83 -33 -204 -87 -270 -120
-65 -33 -155 -74 -199 -91 -43 -17 -127 -56 -186 -85 l-107 -53 -26 20 c-16
12 -27 34 -31 59 -9 56 -44 104 -74 104 -38 0 -35 -27 9 -101 22 -37 44 -83
47 -103 6 -32 3 -38 -29 -66 -28 -24 -57 -36 -122 -50 -47 -11 -91 -22 -97
-26 -17 -11 6 -36 47 -49 21 -7 43 -26 60 -53 39 -60 66 -87 86 -87 9 0 38 25
63 55 26 30 72 76 103 102 51 44 60 48 125 54 48 4 78 13 98 28 16 11 35 21
43 21 8 0 52 32 98 70 124 104 213 154 424 240 105 43 215 88 245 100 30 12
91 37 135 55 136 56 484 155 542 155 94 0 78 -32 -49 -96 -36 -18 -69 -38 -72
-43 -26 -41 -228 -127 -436 -186 -47 -13 -105 -33 -130 -43 -102 -44 -160 -63
-220 -73 -81 -13 -163 -40 -269 -90 -46 -21 -98 -39 -116 -39 -66 0 -89 -69
-32 -96 25 -12 40 -30 55 -65 18 -43 24 -49 50 -49 23 0 36 8 52 30 16 23 29
30 55 30 44 0 69 -24 53 -50 -7 -11 -9 -22 -6 -25 4 -4 42 -15 85 -24 43 -10
98 -23 123 -29 25 -6 113 -27 195 -46 83 -20 222 -58 310 -86 88 -28 191 -59
228 -70 38 -10 71 -20 73 -23 3 -2 -1 -16 -7 -31 -15 -33 -36 -33 -130 0 -41
14 -123 39 -182 55 -60 16 -120 35 -135 43 -45 22 -370 96 -424 96 -39 0 -36
-28 5 -45 17 -7 87 -25 155 -39 68 -14 165 -40 215 -57 51 -17 145 -46 211
-65 124 -35 180 -67 197 -111 5 -13 9 -29 9 -34 0 -18 -51 -9 -117 21 -37 17
-72 29 -79 26 -6 -2 -14 -19 -18 -36 -7 -36 -18 -37 -87 -7 -70 31 -79 -14
-12 -58 41 -27 87 -116 79 -151 -6 -22 0 -32 34 -64 34 -32 40 -43 40 -79 0
-46 -22 -96 -53 -121 -21 -18 -35 -83 -36 -173 -1 -26 -8 -62 -17 -79 -12 -23
-17 -64 -18 -157 -2 -115 -5 -131 -29 -178 -15 -29 -31 -53 -36 -53 -13 0 -38
-59 -45 -108 -8 -55 -60 -126 -106 -146 -19 -8 -61 -17 -94 -20 -32 -4 -68
-11 -80 -17 -35 -19 -86 -72 -86 -91 0 -29 193 -119 213 -99 5 5 -9 20 -35 38
-23 16 -44 36 -46 46 -3 14 3 16 40 11 27 -4 64 0 101 11 39 11 74 15 102 10
47 -7 90 9 133 48 l22 21 38 -37 c30 -29 46 -37 76 -37 20 0 47 5 59 12 12 7
47 13 77 14 35 0 70 9 95 23 22 11 49 21 60 21 11 0 38 11 60 25 22 13 58 34
80 45 22 12 63 46 92 75 28 30 74 65 100 79 37 18 56 36 73 69 16 31 39 54 76
76 28 17 66 47 84 68 29 33 32 41 27 83 -9 71 -26 100 -77 124 -52 25 -57 40
-15 44 69 8 74 57 14 126 -23 26 -39 50 -36 53 6 6 44 -32 99 -96 21 -26 31
-31 52 -25 19 5 34 -1 58 -22 l33 -27 3 32 c8 75 -80 195 -188 258 -25 15 -63
39 -85 54 -59 41 -275 119 -329 119 -98 0 -126 -42 -68 -103 15 -16 51 -40 80
-54 39 -18 61 -37 80 -68 16 -26 45 -54 78 -74 29 -17 56 -37 60 -42 9 -14
-14 -29 -46 -29 -31 0 -90 -35 -90 -54 0 -7 18 -25 40 -40 22 -14 40 -33 40
-42 0 -23 -52 -12 -148 32 -52 24 -88 34 -112 32 -31 -3 -35 -6 -38 -34 -3
-28 3 -37 55 -76 46 -34 60 -52 68 -83 6 -22 16 -50 23 -62 17 -31 15 -37 -18
-50 -25 -9 -30 -17 -30 -43 0 -29 -2 -31 -32 -28 -28 3 -33 0 -36 -21 -2 -13
6 -37 18 -53 27 -37 22 -44 -17 -22 -34 20 -63 13 -63 -13 0 -10 -7 -31 -15
-47 -20 -37 -19 -56 5 -86 20 -25 25 -51 14 -63 -11 -11 -41 11 -62 47 -25 43
-79 75 -88 52 -3 -8 6 -32 20 -53 14 -21 26 -49 26 -63 -1 -29 9 -39 -81 83
-71 96 -81 125 -90 257 -5 94 -3 131 12 204 10 49 26 103 35 120 9 17 26 74
39 126 13 52 28 96 35 98 6 2 23 14 37 27 l27 22 -17 58 c-9 32 -14 61 -12 65
3 4 22 10 44 14 32 5 41 11 50 37 6 18 11 44 11 58 0 15 9 43 20 64 11 20 20
47 20 60 0 13 -9 59 -20 102 -11 43 -20 96 -20 117 0 33 4 40 28 49 43 17 233
-14 287 -46 87 -50 185 -16 215 76 17 51 30 61 96 70 82 11 128 37 132 74 3
28 -3 35 -61 72 -97 61 -253 106 -353 101 -55 -3 -59 -5 -62 -29 -4 -30 22
-52 98 -84 25 -10 51 -24 59 -31 18 -16 7 -44 -17 -44 -19 0 -217 72 -264 96
-31 16 -88 19 -88 4 0 -5 32 -31 70 -57 76 -50 81 -73 14 -54 -22 6 -65 11
-98 11 -56 0 -179 31 -276 70 -25 10 -74 23 -110 29 -93 15 -244 57 -248 69
-5 15 35 21 71 11 47 -13 87 -11 87 5 0 18 -22 26 -68 26 -20 0 -65 7 -101 15
-182 42 -162 41 -187 10 l-22 -27 -76 10 c-52 7 -93 20 -129 40 -28 16 -67 33
-84 36 -88 20 23 67 200 86 58 6 114 18 135 29 21 11 60 22 87 26 28 4 66 15
85 25 34 17 239 84 350 115 48 13 72 31 201 150 80 74 152 148 159 164 35 86
237 142 510 140 122 -1 156 3 215 21 166 52 260 62 535 56 399 -8 615 -21 695
-43 69 -19 70 -19 73 -56 3 -31 8 -38 30 -42 134 -28 228 -65 249 -98 4 -6 10
-30 13 -52 4 -32 10 -41 28 -43 18 -3 26 4 38 34 l16 38 20 -27 20 -28 22 20
c19 18 26 19 54 9 46 -18 56 -2 31 49 -11 23 -39 63 -62 89 -127 144 -280 204
-672 263 -92 14 -562 20 -790 10z"/>
<path d="M10410 7950 c0 -6 10 -30 21 -53 16 -30 23 -67 27 -132 3 -67 11
-102 28 -137 13 -26 20 -49 15 -53 -5 -3 -26 -35 -46 -72 -36 -65 -39 -86 -21
-133 5 -11 -7 -20 -44 -33 -38 -13 -56 -28 -74 -56 -13 -20 -34 -44 -47 -53
-21 -14 -22 -18 -11 -42 6 -15 12 -38 12 -51 0 -24 -3 -25 -62 -25 -58 0 -63
-2 -97 -38 -20 -21 -44 -56 -55 -77 -10 -22 -24 -51 -30 -65 -11 -23 -16 -25
-72 -22 -53 3 -64 1 -90 -22 -46 -38 -84 -98 -92 -147 -7 -39 -11 -44 -32 -41
-14 2 -64 6 -111 9 -81 5 -88 3 -108 -18 -37 -40 -28 -62 39 -94 56 -27 63
-28 96 -16 22 8 53 10 78 7 34 -5 48 -3 69 14 l27 21 52 -28 c62 -33 76 -63
29 -63 -16 0 -40 4 -53 9 -16 6 -42 1 -92 -17 -62 -23 -71 -30 -84 -64 -20
-51 -45 -56 -142 -29 -42 11 -95 21 -117 21 -22 0 -84 9 -139 21 -54 11 -145
27 -201 34 -56 8 -115 21 -132 29 -49 26 -55 -20 -10 -77 20 -26 24 -27 122
-27 73 0 133 -7 212 -24 209 -48 230 -51 315 -51 70 0 91 4 115 21 24 17 50
22 130 27 120 6 209 34 279 86 27 20 83 54 125 76 55 30 84 52 106 84 49 71
99 116 143 129 48 15 138 82 147 112 3 11 4 28 1 38 -7 21 -77 62 -105 62 -18
0 -21 -6 -21 -39 0 -22 -5 -43 -10 -46 -15 -9 -130 64 -142 91 -19 41 -4 57
46 50 50 -8 67 5 42 33 -19 21 -21 70 -3 77 17 6 120 -39 164 -73 19 -14 41
-42 49 -61 14 -34 15 -34 56 -28 63 10 109 41 152 102 45 65 81 90 145 99 68
10 125 48 183 122 41 52 63 70 108 90 59 25 90 65 90 116 0 32 -23 60 -46 55
-14 -2 -20 -14 -24 -48 -5 -42 -7 -45 -37 -48 -25 -3 -41 6 -82 42 -69 62
-253 150 -295 142 -34 -7 -96 -58 -96 -79 0 -8 32 -31 72 -53 64 -35 73 -44
86 -82 11 -33 26 -52 63 -79 51 -36 61 -56 33 -67 -51 -20 -83 -3 -214 110
-26 23 -68 49 -91 58 -24 8 -66 24 -94 34 -43 15 -52 23 -62 55 -9 27 -10 45
-2 64 6 15 8 42 4 60 -6 34 11 79 39 102 23 19 20 45 -11 82 -48 56 -110 89
-170 89 -30 0 -53 -5 -53 -10z"/>
<path d="M3045 7925 c-27 -7 -107 -14 -177 -14 -150 -1 -190 -13 -292 -85 -64
-46 -75 -66 -36 -66 29 0 50 -39 50 -93 0 -52 -16 -91 -49 -121 -46 -41 -17
-47 80 -15 96 32 103 42 108 149 2 72 6 92 20 99 9 5 59 16 111 26 52 9 118
21 147 26 31 6 66 22 89 40 20 16 47 29 60 29 28 0 42 19 23 31 -19 12 -74 9
-134 -6z"/>
<path d="M2050 7895 c-58 -13 -110 -37 -224 -104 -38 -22 -81 -43 -97 -46 -15
-3 -35 -15 -44 -25 -35 -39 10 -31 168 30 197 76 248 79 180 10 -16 -15 -40
-45 -55 -68 -29 -45 -116 -98 -208 -127 -41 -14 -70 -33 -120 -82 -36 -36 -77
-70 -92 -75 -16 -5 -28 -15 -28 -22 0 -13 81 -56 105 -56 8 0 31 21 52 46 42
51 104 94 221 153 42 22 102 57 132 79 51 35 56 42 66 94 6 30 26 82 44 115
51 93 32 108 -100 78z"/>
<path d="M9885 7891 c-45 -5 -50 -9 -53 -34 -5 -39 36 -53 183 -61 66 -4 140
-11 163 -15 65 -13 84 -5 80 32 -2 23 -13 38 -37 54 -30 20 -47 23 -131 23
-54 0 -110 2 -126 4 -16 2 -51 1 -79 -3z"/>
<path d="M10686 7891 c-15 -24 20 -56 49 -45 21 8 19 31 -4 44 -24 12 -38 13
-45 1z"/>
<path d="M6360 7840 c-21 -38 13 -55 43 -22 24 26 21 42 -8 42 -14 0 -29 -8
-35 -20z"/>
<path d="M10915 7839 c-10 -15 1 -23 20 -15 9 3 13 10 10 16 -8 13 -22 13 -30
-1z"/>
<path d="M3680 7792 c0 -9 18 -28 40 -42 22 -14 40 -30 40 -37 0 -16 18 -13
-140 -25 -155 -12 -259 -13 -415 -3 -93 6 -113 5 -124 -8 -21 -26 19 -57 72
-57 57 0 101 -14 126 -39 20 -20 29 -21 124 -15 56 3 131 10 167 15 36 6 90 7
121 4 60 -7 159 7 221 32 52 21 51 50 -2 96 -92 79 -230 126 -230 79z"/>
<path d="M4177 7803 c-17 -16 -5 -33 23 -33 23 0 30 4 30 20 0 14 -7 20 -23
20 -13 0 -27 -3 -30 -7z"/>
<path d="M6626 7795 c-21 -21 -20 -44 0 -52 11 -4 22 1 31 13 26 36 0 70 -31
39z"/>
<path d="M9292 7768 c3 -7 19 -14 37 -16 24 -3 32 0 29 10 -3 7 -19 14 -37 16
-24 3 -32 0 -29 -10z"/>
<path d="M10996 7742 c-2 -4 -2 -13 2 -19 12 -19 204 -84 237 -81 37 4 40 30
5 40 -14 4 -68 21 -120 37 -101 33 -116 36 -124 23z"/>
<path d="M9778 7718 c-20 -16 -48 -23 -105 -28 -43 -4 -108 -17 -145 -30 -66
-22 -69 -22 -132 -6 -98 24 -307 22 -364 -4 -38 -17 -43 -23 -40 -47 l3 -28
180 -6 c130 -5 205 -13 269 -28 125 -29 145 -28 177 11 24 28 34 32 99 39 51
6 83 15 109 32 20 14 53 30 74 37 44 14 47 31 11 59 -35 28 -100 27 -136 -1z"/>
<path d="M6720 7611 c-5 -11 -10 -31 -10 -46 0 -39 -37 -105 -66 -115 -14 -6
-40 -10 -59 -10 -50 0 -65 -21 -65 -89 0 -61 7 -74 48 -84 21 -5 166 15 215
29 19 6 23 39 6 50 -13 8 -8 39 21 118 24 67 21 110 -11 144 -25 27 -65 29
-79 3z"/>
<path d="M2720 7517 c0 -21 11 -27 31 -16 27 14 23 29 -6 29 -14 0 -25 -6 -25
-13z"/>
<path d="M2940 7491 c-112 -55 -193 -121 -234 -188 -9 -15 13 -58 53 -102 23
-25 31 -47 37 -90 3 -31 11 -62 16 -68 18 -22 58 -14 89 16 39 40 39 83 -3
146 l-32 48 20 35 c14 26 30 39 60 49 31 10 45 22 54 44 7 16 28 49 46 72 31
38 32 43 17 55 -25 18 -62 13 -123 -17z"/>
<path d="M9477 7483 c-4 -3 -7 -17 -7 -29 0 -26 39 -59 119 -99 71 -35 56 -55
-20 -25 -30 12 -105 32 -168 45 -193 42 -357 31 -531 -35 -41 -16 -92 -32
-113 -36 -38 -7 -45 -11 -72 -49 l-14 -20 -6 20 c-22 68 -16 65 -122 65 -105
0 -163 -11 -188 -36 -20 -21 -19 -31 8 -58 19 -19 37 -24 107 -29 67 -4 95
-11 144 -37 54 -29 73 -33 161 -37 77 -3 107 -8 132 -24 19 -12 40 -18 48 -15
23 9 75 87 75 114 0 21 -3 23 -27 17 -16 -3 -45 -17 -65 -31 -21 -13 -40 -24
-43 -24 -11 0 -4 67 8 84 17 24 167 41 331 38 104 -3 151 -9 243 -33 70 -17
140 -29 179 -29 59 0 68 3 95 29 43 43 40 81 -10 114 -22 15 -51 29 -65 33
-15 3 -52 26 -83 50 -52 41 -98 55 -116 37z"/>
<path d="M4102 7460 c-29 -27 -28 -44 4 -69 42 -33 66 -1 48 67 -8 27 -24 28
-52 2z"/>
<path d="M9871 7456 c-7 -8 -11 -29 -9 -47 3 -30 9 -35 53 -52 112 -43 155
-30 112 35 -44 65 -127 99 -156 64z"/>
<path d="M4344 7412 c-6 -4 -14 -19 -17 -33 -6 -24 -12 -26 -109 -38 -89 -11
-114 -11 -183 2 -44 9 -100 25 -125 36 -40 18 -65 21 -230 21 -164 0 -196 -3
-275 -24 -50 -13 -117 -35 -150 -50 -33 -14 -72 -26 -87 -26 -43 0 -78 -18
-78 -39 0 -57 66 -54 425 15 121 24 361 21 510 -6 104 -18 100 -16 71 -51 -45
-53 -34 -71 44 -71 52 1 78 11 121 47 20 16 47 24 105 29 193 18 185 15 213
70 24 46 24 49 7 61 -16 12 -130 46 -201 59 -16 3 -35 3 -41 -2z"/>
<path d="M8120 7300 c-17 -32 -9 -64 17 -68 39 -6 65 16 61 51 -3 28 -7 32
-35 35 -24 2 -34 -2 -43 -18z"/>
<path d="M3690 7192 c-8 -4 -27 -15 -42 -25 -15 -10 -55 -29 -90 -42 -155 -56
-199 -79 -265 -134 -73 -61 -91 -98 -54 -108 17 -4 21 -13 20 -37 0 -17 5 -46
12 -64 16 -38 8 -47 -51 -57 -69 -12 -143 -57 -177 -107 -58 -87 -71 -100
-119 -112 -58 -15 -81 -42 -59 -73 19 -26 78 -37 153 -28 51 6 60 12 116 68
43 43 89 77 153 110 87 45 153 102 153 131 0 7 -7 33 -15 56 -26 75 -21 92 33
117 27 13 54 34 65 52 10 17 48 52 84 78 84 60 173 142 173 158 0 23 -55 33
-90 17z"/>
<path d="M3962 7168 c2 -13 10 -23 18 -23 8 0 16 10 18 23 3 17 -2 22 -18 22
-16 0 -21 -5 -18 -22z"/>
<path d="M3877 7163 c-4 -3 -7 -17 -7 -30 0 -29 36 -32 45 -3 10 31 -17 55
-38 33z"/>
<path d="M9648 7123 c-31 -8 -20 -32 29 -63 46 -29 106 -40 117 -21 7 11 -69
81 -88 81 -8 0 -20 2 -28 4 -7 2 -21 2 -30 -1z"/>
<path d="M7200 7077 c0 -26 43 -61 120 -98 25 -12 59 -32 76 -45 16 -13 61
-35 100 -49 38 -15 89 -42 113 -61 49 -38 107 -47 118 -18 9 25 -24 49 -122
89 -49 20 -106 47 -125 59 -58 38 -258 146 -269 146 -6 0 -11 -10 -11 -23z"/>
<path d="M8580 7090 c-13 -8 -12 -11 5 -24 24 -18 61 -21 71 -4 8 13 -22 38
-45 38 -9 0 -23 -5 -31 -10z"/>
<path d="M2954 7026 c-8 -22 3 -33 18 -18 9 9 9 15 0 24 -9 9 -13 7 -18 -6z"/>
<path d="M6726 6973 c-6 -51 -11 -60 -39 -78 -25 -16 -37 -35 -54 -89 -25 -75
-41 -92 -112 -116 -37 -12 -46 -21 -53 -48 -6 -22 -5 -41 4 -60 11 -23 22 -28
68 -35 30 -4 78 -15 106 -24 29 -8 56 -13 61 -10 18 12 103 193 119 255 16 63
14 96 -8 195 -10 48 -29 67 -66 67 -16 0 -21 -10 -26 -57z"/>
<path d="M6320 6988 c-11 -18 -21 -36 -22 -39 -2 -3 -16 -12 -33 -20 -29 -14
-30 -17 -35 -96 -3 -45 -8 -85 -12 -88 -3 -3 -27 -11 -54 -18 -42 -10 -50 -16
-58 -44 -11 -40 9 -145 34 -176 l18 -21 88 41 c71 32 95 50 119 83 27 38 30
48 28 113 -1 40 -2 118 -2 174 -1 90 -4 104 -20 113 -28 14 -29 14 -51 -22z"/>
<path d="M7616 7002 c-9 -15 14 -30 64 -41 58 -13 81 -1 44 23 -32 21 -99 33
-108 18z"/>
<path d="M7114 6963 c4 -16 11 -48 16 -72 13 -57 32 -78 89 -94 42 -12 46 -16
59 -60 14 -51 27 -57 63 -29 40 31 58 33 96 12 24 -12 41 -16 47 -10 17 17
-13 38 -140 100 -87 43 -131 70 -149 94 -14 18 -25 37 -25 43 0 14 -34 43 -49
43 -9 0 -11 -8 -7 -27z"/>
<path d="M7000 6876 c0 -35 10 -56 26 -56 14 0 19 36 8 64 -10 25 -34 19 -34
-8z"/>
<path d="M5799 6806 c-13 -6 -33 -29 -44 -51 -11 -23 -30 -51 -42 -63 -13 -12
-23 -30 -23 -41 0 -10 -7 -35 -15 -54 -20 -48 -20 -47 21 -47 36 0 36 0 20
-22 -39 -55 -41 -65 -18 -131 22 -62 26 -124 13 -182 -6 -21 -2 -39 11 -62 18
-30 18 -35 4 -78 -24 -68 -20 -106 14 -156 28 -42 30 -49 30 -150 0 -58 -5
-132 -11 -164 -12 -63 -5 -123 33 -325 38 -199 47 -235 87 -344 23 -60 41
-114 41 -121 0 -7 14 -39 31 -71 17 -33 37 -81 44 -109 32 -121 87 -292 102
-315 9 -14 31 -43 48 -65 49 -61 95 -156 105 -219 5 -31 12 -61 15 -66 13 -21
94 -61 127 -62 67 -2 68 2 21 167 -31 109 -44 135 -93 189 -32 35 -41 55 -59
136 -12 52 -32 111 -45 130 -13 20 -27 55 -31 79 -7 41 -77 189 -119 254 -15
22 -17 41 -14 95 5 71 -4 105 -60 222 -22 45 -26 67 -24 123 1 40 -4 82 -12
102 -32 77 -38 139 -20 214 17 68 16 77 -1 190 -18 120 -17 187 6 316 6 33 12
115 13 182 3 121 4 124 46 212 24 49 40 97 37 105 -4 9 -18 16 -35 16 -39 0
-53 16 -41 48 15 40 4 66 -41 91 -59 33 -94 41 -121 27z"/>
<path d="M4815 6800 c-3 -5 -1 -10 4 -10 6 0 11 5 11 10 0 6 -2 10 -4 10 -3 0
-8 -4 -11 -10z"/>
<path d="M7965 6785 c-16 -8 -40 -14 -52 -15 -40 0 -25 -28 30 -55 88 -45 147
-33 147 31 0 50 -60 68 -125 39z"/>
<path d="M4575 6755 c-199 -38 -505 -194 -505 -258 0 -9 14 -24 31 -34 23 -14
29 -23 24 -38 -19 -60 -18 -65 9 -65 19 0 32 8 44 30 9 16 29 34 45 39 31 11
36 31 8 31 -10 0 -24 6 -30 14 -10 12 -2 21 43 50 68 44 186 103 241 122 100
35 206 89 203 104 -4 20 -28 21 -113 5z"/>
<path d="M8250 6710 c0 -5 9 -10 20 -10 11 0 20 5 20 10 0 6 -9 10 -20 10 -11
0 -20 -4 -20 -10z"/>
<path d="M9010 6650 c-34 -23 81 -75 151 -68 56 5 43 30 -31 55 -72 25 -98 27
-120 13z"/>
<path d="M6993 6573 c-28 -11 -7 -93 23 -93 12 0 14 10 12 47 -3 46 -11 56
-35 46z"/>
<path d="M6860 6544 c-12 -31 -12 -35 -1 -53 15 -24 41 6 41 45 0 42 -26 47
-40 8z"/>
<path d="M7610 6540 c0 -5 5 -10 10 -10 6 0 10 5 10 10 0 6 -4 10 -10 10 -5 0
-10 -4 -10 -10z"/>
<path d="M7103 6504 c-7 -18 12 -64 27 -64 17 0 23 30 12 56 -13 27 -30 31
-39 8z"/>
<path d="M9560 6485 c0 -8 9 -19 19 -25 27 -14 40 9 16 27 -24 17 -35 17 -35
-2z"/>
<path d="M6803 6455 c-3 -9 -3 -18 0 -21 9 -9 27 6 27 22 0 19 -19 18 -27 -1z"/>
<path d="M6356 6391 c-4 -5 -2 -12 3 -15 5 -4 12 -2 15 3 4 5 2 12 -3 15 -5 4
-12 2 -15 -3z"/>
<path d="M6524 6388 c-9 -15 81 -98 106 -98 34 0 31 19 -11 65 -41 45 -80 58
-95 33z"/>
<path d="M3070 6330 c0 -5 9 -10 21 -10 11 0 17 5 14 10 -3 6 -13 10 -21 10
-8 0 -14 -4 -14 -10z"/>
<path d="M9313 6324 c-6 -17 12 -64 25 -64 17 0 54 49 49 64 -8 21 -66 21 -74
0z"/>
<path d="M6336 6291 c-17 -17 -35 -31 -41 -31 -6 0 -36 -16 -68 -36 -58 -36
-74 -68 -41 -81 25 -9 122 17 150 40 27 24 44 78 35 115 l-6 23 -29 -30z"/>
<path d="M3003 6263 c9 -2 23 -2 30 0 6 3 -1 5 -18 5 -16 0 -22 -2 -12 -5z"/>
<path d="M6440 6231 c0 -39 9 -61 26 -61 15 0 19 45 8 74 -11 28 -34 18 -34
-13z"/>
<path d="M3105 6240 c-3 -5 1 -10 9 -10 8 0 18 5 21 10 3 6 -1 10 -9 10 -8 0
-18 -4 -21 -10z"/>
<path d="M6692 6215 c-25 -29 -40 -30 -110 -10 -39 12 -57 13 -72 5 -27 -15
-25 -26 10 -62 30 -30 32 -30 103 -24 101 10 179 63 147 101 -19 23 -54 18
-78 -10z"/>
<path d="M6092 6188 c2 -25 8 -34 26 -36 19 -3 22 1 22 32 0 32 -3 36 -26 36
-23 0 -25 -3 -22 -32z"/>
<path d="M7027 6153 c-13 -12 -7 -58 14 -103 24 -52 39 -42 39 28 0 63 -27
102 -53 75z"/>
<path d="M3581 5990 c-49 -39 -66 -70 -38 -70 22 0 121 31 135 42 18 16 15 46
-7 58 -29 15 -35 13 -90 -30z"/>
<path d="M6113 6010 c-24 -10 -29 -35 -14 -59 10 -16 81 -17 110 -1 21 11 28
44 13 54 -19 11 -88 15 -109 6z"/>
<path d="M6717 5989 c-35 -19 -60 -54 -50 -71 2 -5 17 -8 34 -8 31 0 109 61
109 86 0 20 -48 17 -93 -7z"/>
<path d="M4370 5881 c-23 -45 -5 -78 33 -59 11 6 17 20 17 43 0 28 -4 35 -20
35 -10 0 -24 -9 -30 -19z"/>
<path d="M6326 5815 c-22 -20 -72 -46 -119 -63 -84 -30 -105 -47 -94 -76 4
-11 18 -16 44 -16 48 0 190 36 220 55 30 20 49 84 34 114 -16 29 -40 26 -85
-14z"/>
<path d="M6500 5737 c0 -9 15 -24 33 -35 52 -32 192 -74 234 -70 33 3 39 7 47
35 14 52 -1 60 -117 67 -56 3 -123 8 -149 12 -39 5 -48 3 -48 -9z"/>
<path d="M7163 5575 c3 -19 17 -57 31 -84 13 -28 33 -78 42 -113 24 -85 88
-241 114 -278 23 -33 50 -40 50 -14 0 9 -18 50 -40 90 -23 41 -56 124 -75 191
-18 65 -45 141 -59 169 -14 29 -26 57 -26 63 0 6 -10 11 -21 11 -19 0 -21 -4
-16 -35z"/>
<path d="M6311 5574 c-28 -36 -27 -70 4 -90 51 -33 76 1 60 83 -7 41 -35 44
-64 7z"/>
<path d="M6673 5548 c7 -57 19 -73 59 -83 23 -6 28 -3 34 19 11 44 -3 74 -46
96 -21 11 -42 20 -46 20 -4 0 -4 -23 -1 -52z"/>
<path d="M4466 5520 c-14 -17 -30 -50 -36 -73 -28 -113 -44 -151 -81 -192 -49
-53 -54 -101 -13 -111 68 -17 106 32 129 164 10 55 20 81 39 101 31 32 48 84
40 118 -9 33 -46 30 -78 -7z"/>
<path d="M4199 5377 c-80 -75 -101 -108 -97 -150 5 -48 32 -47 81 5 70 73 128
209 90 208 -4 0 -38 -29 -74 -63z"/>
<path d="M6310 5395 c-17 -21 -1 -38 31 -33 16 2 25 11 27 26 3 18 -1 22 -21
22 -14 0 -30 -7 -37 -15z"/>
<path d="M7043 5394 c-3 -8 -3 -46 0 -82 4 -49 2 -74 -8 -92 -16 -28 -20 -165
-6 -175 13 -8 31 27 31 62 0 15 9 48 20 72 22 48 26 133 9 194 -10 38 -35 50
-46 21z"/>
<path d="M4552 5279 c-36 -11 -57 -48 -47 -86 5 -21 11 -23 66 -23 33 0 89 -8
124 -17 61 -16 68 -16 142 1 43 10 84 23 91 28 35 28 -2 50 -108 64 -29 3 -74
15 -98 25 -46 20 -116 23 -170 8z"/>
<path d="M6306 5225 c-33 -33 -13 -165 25 -165 27 0 40 42 37 114 -3 53 -6 61
-24 64 -12 2 -29 -4 -38 -13z"/>
<path d="M6610 5200 c0 -5 5 -10 10 -10 6 0 10 5 10 10 0 6 -4 10 -10 10 -5 0
-10 -4 -10 -10z"/>
<path d="M6206 5144 c-26 -25 -16 -49 19 -49 27 0 30 3 30 30 0 35 -24 45 -49
19z"/>
<path d="M6520 5125 c0 -9 7 -18 15 -21 23 -9 45 3 39 21 -8 20 -54 20 -54 0z"/>
<path d="M8488 5073 c7 -3 16 -2 19 1 4 3 -2 6 -13 5 -11 0 -14 -3 -6 -6z"/>
<path d="M4934 5026 c-8 -22 2 -46 21 -46 19 0 20 34 0 50 -12 10 -16 9 -21
-4z"/>
<path d="M6300 4965 c0 -8 9 -15 20 -15 11 0 20 7 20 15 0 8 -9 15 -20 15 -11
0 -20 -7 -20 -15z"/>
<path d="M7565 4950 c3 -5 13 -10 21 -10 8 0 12 5 9 10 -3 6 -13 10 -21 10 -8
0 -12 -4 -9 -10z"/>
<path d="M6300 4878 c-7 -15 -26 -32 -41 -39 -31 -12 -37 -36 -19 -70 13 -23
47 -24 115 -4 34 11 68 13 106 9 52 -6 58 -4 69 15 9 17 9 26 -2 38 -10 12
-27 14 -85 11 l-73 -5 -29 36 -29 36 -12 -27z"/>
</g>
</svg>
